<svg width="332" height="283" viewBox="0 0 332 283" xmlns="http://www.w3.org/2000/svg"><title>55F0A684-C328-4B8A-A827-8B1EC64F01B9</title><g fill="none" fill-rule="evenodd"><g transform="matrix(-1 0 0 1 332 0)" fill-opacity=".1" fill="#A4CFFF"><circle cx="192.5" cy="139.5" r="139.5"/><circle cx="34.5" cy="248.5" r="34.5"/></g><path stroke="#1C89FF" stroke-width="2" stroke-linecap="round" stroke-linejoin="round" d="M25 210.489h89.118V61.362H25z"/><path fill="#E22A70" d="M38.881 98.404h30.678V74.263H38.881z"/><path stroke="#1C89FF" stroke-width="2" stroke-linecap="round" stroke-linejoin="round" d="M123.232 128.165h123.009V60.001H123.232z"/><path fill="#E22A70" d="M137.113 97.042h30.678V72.901h-30.678z"/><path stroke="#1C89FF" stroke-width="2" stroke-linecap="round" stroke-linejoin="round" d="M126.52 210.489h69.572v-67.502H126.52z"/><path fill="#E22A70" d="M137.236 168.695h19.392v-15.26h-19.392z"/><path stroke="#1C89FF" stroke-width="2" stroke-linecap="round" stroke-linejoin="round" d="M207.191 181.522h39.717v-38.535h-39.717z"/><path fill="#E22A70" d="M214.502 160.526h13.23v-10.411h-13.23z"/><path stroke="#1C89FF" stroke-width="2" stroke-linecap="round" stroke-linejoin="round" d="M207.191 210.01h39.717v-23.791h-39.717z"/><path fill="#E22A70" d="M213.502 203.319h13.23v-10.411h-13.23z"/><path d="M54.593 64.385v8.75M54.593 64.385v8.75M49.593 73.135h10M59.593 64.385h-10M87.657 86.334h-12.9M111.635 86.334h-40.75M70.885 81.334v10M111.635 91.334v-10M54.26 123.936v79.9M54.26 99.959v107.75M49.26 207.709h10M59.26 99.959h-10M34.657 86.334h-6.773M37.635 86.334h-9.75M27.885 81.334v10M37.635 91.334v-10" stroke="#B7B7B7"/><path d="M65.592 112.135h39M65.592 118.385h33.25M65.592 127.885h39M137.128 173.647h39M137.128 179.897h33.25M137.128 189.397h39M184.737 73.459h39M184.737 79.709h33.25M184.737 89.209h39M214.502 166.885h25.25M214.502 173.135h21.527" stroke="#1C89FF" stroke-width="2" stroke-linecap="round" stroke-linejoin="round"/><g fill="#B7B7B7"><path d="M108.092 69.135c3.217 0 3.223-5 0-5-3.217 0-3.223 5 0 5M190.842 150.385c3.217 0 3.223-5 0-5-3.217 0-3.223 5 0 5M242.842 149.385c3.217 0 3.223-5 0-5-3.217 0-3.223 5 0 5M242.342 192.885c3.217 0 3.223-5 0-5-3.217 0-3.223 5 0 5M241.092 67.635c3.217 0 3.223-5 0-5-3.217 0-3.223 5 0 5"/></g></g></svg>