<?xml version="1.0" encoding="UTF-8"?>
<svg width="454px" height="471px" viewBox="0 0 454 471" version="1.1" xmlns="http://www.w3.org/2000/svg" xmlns:xlink="http://www.w3.org/1999/xlink">
    <!-- Generator: sketchtool 42 (36781) - http://www.bohemiancoding.com/sketch -->
    <title>5B426237-6B97-4808-94BE-A9E26872A9C8</title>
    <desc>Created with sketchtool.</desc>
    <defs>
        <rect id="path-1" x="138.135802" y="172.130435" width="155.728395" height="117.681159" rx="2"></rect>
        <mask id="mask-2" maskContentUnits="userSpaceOnUse" maskUnits="objectBoundingBox" x="0" y="0" width="155.728395" height="117.681159" fill="white">
            <use xlink:href="#path-1"></use>
        </mask>
    </defs>
    <g id="Page-1" stroke="none" stroke-width="1" fill="none" fill-rule="evenodd">
        <g id="our-work" transform="translate(-952.000000, -98.000000)">
            <g id="Hero-section">
                <g id="Code-illustration" transform="translate(952.000000, 98.000000)">
                    <ellipse id="circle-bg" fill-opacity="0.1" fill="#FFFFFF" cx="216" cy="229.5" rx="101.37037" ry="101.5"></ellipse>
                    <g id="Group-2">
                        <g id="Dots" transform="translate(19.000000, 0.000000)" fill="#1C89FF">
                            <circle id="Oval-13" cx="79.5" cy="21.5" r="2.5"></circle>
                            <circle id="Oval-13-Copy-10" cx="314.5" cy="115.5" r="2.5"></circle>
                            <circle id="Oval-13-Copy" cx="152.5" cy="18.5" r="2.5"></circle>
                            <circle id="Oval-13-Copy-3" cx="72.5" cy="78.5" r="1.5"></circle>
                            <circle id="Oval-13-Copy-9" cx="360.5" cy="108.5" r="1.5"></circle>
                            <circle id="Oval-13-Copy-11" cx="269.5" cy="43.5" r="1.5"></circle>
                            <circle id="Oval-13-Copy-4" cx="1.5" cy="71.5" r="1.5"></circle>
                            <circle id="Oval-13-Copy-5" cx="66.5" cy="148.5" r="2.5"></circle>
                            <circle id="Oval-13-Copy-6" cx="117.5" cy="119.5" r="1.5"></circle>
                            <circle id="Oval-13-Copy-2" cx="255.5" cy="1.5" r="1.5"></circle>
                            <circle id="Oval-13-Copy-8" cx="334.5" cy="28.5" r="2.5"></circle>
                            <circle id="Oval-13-Copy-7" cx="284.5" cy="89.5" r="2.5"></circle>
                            <circle id="Oval-13-Copy-12" cx="148.5" cy="69.5" r="2.5"></circle>
                            <circle id="Oval-13" transform="translate(316.500000, 449.500000) scale(-1, -1) translate(-316.500000, -449.500000) " cx="316.5" cy="449.5" r="2.5"></circle>
                            <circle id="Oval-13-Copy-10" transform="translate(81.500000, 345.500000) scale(-1, -1) translate(-81.500000, -345.500000) " cx="81.5" cy="345.5" r="2.5"></circle>
                            <circle id="Oval-13-Copy" transform="translate(243.500000, 452.500000) scale(-1, -1) translate(-243.500000, -452.500000) " cx="243.5" cy="452.5" r="2.5"></circle>
                            <circle id="Oval-13-Copy-3" transform="translate(323.500000, 392.500000) scale(-1, -1) translate(-323.500000, -392.500000) " cx="323.5" cy="392.5" r="1.5"></circle>
                            <circle id="Oval-13-Copy-9" transform="translate(35.500000, 362.500000) scale(-1, -1) translate(-35.500000, -362.500000) " cx="35.5" cy="362.5" r="1.5"></circle>
                            <circle id="Oval-13-Copy-11" transform="translate(126.500000, 427.500000) scale(-1, -1) translate(-126.500000, -427.500000) " cx="126.5" cy="427.5" r="1.5"></circle>
                            <circle id="Oval-13-Copy-4" transform="translate(394.500000, 399.500000) scale(-1, -1) translate(-394.500000, -399.500000) " cx="394.5" cy="399.5" r="1.5"></circle>
                            <circle id="Oval-13-Copy-5" transform="translate(329.500000, 322.500000) scale(-1, -1) translate(-329.500000, -322.500000) " cx="329.5" cy="322.5" r="2.5"></circle>
                            <circle id="Oval-13-Copy-6" transform="translate(278.500000, 351.500000) scale(-1, -1) translate(-278.500000, -351.500000) " cx="278.5" cy="351.5" r="1.5"></circle>
                            <circle id="Oval-13-Copy-2" transform="translate(140.500000, 469.500000) scale(-1, -1) translate(-140.500000, -469.500000) " cx="140.5" cy="469.5" r="1.5"></circle>
                            <circle id="Oval-13-Copy-8" transform="translate(61.500000, 442.500000) scale(-1, -1) translate(-61.500000, -442.500000) " cx="61.5" cy="442.5" r="2.5"></circle>
                            <circle id="Oval-13-Copy-7" transform="translate(111.500000, 381.500000) scale(-1, -1) translate(-111.500000, -381.500000) " cx="111.5" cy="381.5" r="2.5"></circle>
                            <circle id="Oval-13-Copy-12" transform="translate(247.500000, 401.500000) scale(-1, -1) translate(-247.500000, -401.500000) " cx="247.5" cy="401.5" r="2.5"></circle>
                        </g>
                        <g id="Circles" transform="translate(0.000000, 90.000000)" fill-opacity="0.1" fill="#A4CFFF">
                            <circle id="4" cx="214.5" cy="139.5" r="139.5"></circle>
                            <circle id="3" cx="19.5" cy="224.5" r="19.5"></circle>
                            <circle id="2" cx="419.5" cy="312.5" r="34.5"></circle>
                            <circle id="1" cx="401.5" cy="56.5" r="16.5"></circle>
                        </g>
                    </g>
                    <use id="base" stroke="#FFFFFF" mask="url(#mask-2)" stroke-width="4" stroke-linecap="round" stroke-linejoin="round" xlink:href="#path-1"></use>
                    <path d="M144.012346,198.608696 L290.925926,198.608696" id="divider" stroke="#FFFFFF" stroke-width="2" stroke-linecap="square" stroke-linejoin="round"></path>
                    <g id="Webpage-handles" transform="translate(149.888889, 183.898551)" fill="#FFFFFF">
                        <ellipse id="Oval-24" cx="2.9382716" cy="2.94202899" rx="2.9382716" ry="2.94202899"></ellipse>
                        <ellipse id="Oval-24-Copy" cx="14.691358" cy="2.94202899" rx="2.9382716" ry="2.94202899"></ellipse>
                        <ellipse id="Oval-24-Copy-2" cx="26.4444444" cy="2.94202899" rx="2.9382716" ry="2.94202899"></ellipse>
                    </g>
                    <g id="Text" transform="translate(235.098765, 213.318841)" stroke="#E22A70" stroke-width="2" stroke-linecap="round" stroke-linejoin="round">
                        <path d="M0,2.94202899 L35.2592593,2.94202899" id="Line"></path>
                        <path d="M0,14.7101449 L24.4855967,14.7101449" id="Line-Copy-69"></path>
                        <path d="M0,26.4782609 L15.6707819,26.4782609" id="Line-Copy-70"></path>
                        <path d="M26.4444444,26.4782609 L47.0123457,26.4782609" id="Line-Copy-73"></path>
                        <path d="M0,38.2463768 L18.6090535,38.2463768" id="Line-Copy-71"></path>
                        <path d="M0,50.0144928 L11.7530864,50.0144928" id="Line-Copy-72"></path>
                        <path d="M29.382716,38.2463768 L41.1358025,38.2463768" id="Line-Copy-74"></path>
                        <path d="M35.2592593,14.7101449 L41.1358025,14.7101449" id="Line-Copy-75"></path>
                        <path d="M23.5061728,50.0144928 L29.382716,50.0144928" id="Line-Copy-76"></path>
                    </g>
                    <polyline id="Path-4" stroke="#FFFFFF" stroke-width="2" stroke-linecap="round" stroke-linejoin="round" points="170.45679 216.26087 158.703704 228.028986 170.45679 239.797101"></polyline>
                    <polyline id="Path-4-Copy" stroke="#FFFFFF" stroke-width="2" stroke-linecap="round" stroke-linejoin="round" transform="translate(211.592593, 257.449275) scale(-1, 1) translate(-211.592593, -257.449275) " points="217.469136 245.681159 205.716049 257.449275 217.469136 269.217391"></polyline>
                    <path d="M199.839506,216.26087 L173.395062,269.217391" id="Line" stroke="#FFFFFF" stroke-width="2" stroke-linecap="round" stroke-linejoin="round"></path>
                    <g id="Plus" transform="translate(97.000000, 142.710145)" stroke="#E22A70" stroke-width="2" stroke-linecap="round" stroke-linejoin="round">
                        <path d="M8.81481481,0 L8.81481481,17.6521739" id="Line"></path>
                        <path d="M17.6296296,8.82608696 L0,8.82608696" id="Line-Copy-64"></path>
                    </g>
                    <g id="Plus" transform="translate(317.370370, 298.637681)" stroke="#E22A70" stroke-width="2" stroke-linecap="round" stroke-linejoin="round">
                        <path d="M8.81481481,0 L8.81481481,17.6521739" id="Line"></path>
                        <path d="M17.6296296,8.82608696 L0,8.82608696" id="Line-Copy-64"></path>
                    </g>
                    <g id="Plus" transform="translate(97.000000, 298.637681)" stroke="#FFFFFF" stroke-width="2" stroke-linecap="round" stroke-linejoin="round">
                        <path d="M8.81481481,0 L8.81481481,17.6521739" id="Line"></path>
                        <path d="M17.6296296,8.82608696 L0,8.82608696" id="Line-Copy-64"></path>
                    </g>
                    <g id="Plus" transform="translate(317.370370, 142.710145)" stroke="#FFFFFF" stroke-width="2" stroke-linecap="round" stroke-linejoin="round">
                        <path d="M8.81481481,0 L8.81481481,17.6521739" id="Line"></path>
                        <path d="M17.6296296,8.82608696 L0,8.82608696" id="Line-Copy-64"></path>
                    </g>
                </g>
            </g>
        </g>
    </g>
</svg>