<?xml version="1.0" encoding="UTF-8"?>
<svg width="454px" height="471px" viewBox="0 0 454 471" version="1.1" xmlns="http://www.w3.org/2000/svg" xmlns:xlink="http://www.w3.org/1999/xlink">
    <!-- Generator: Sketch 41.2 (35397) - http://www.bohemiancoding.com/sketch -->
    <title>Group 2</title>
    <desc>Created with Sketch.</desc>
    <defs></defs>
    <g id="Page-1" stroke="none" stroke-width="1" fill="none" fill-rule="evenodd">
        <g id="EcmaStack" transform="translate(-820.000000, -178.000000)">
            <g id="Hero-section">
                <g id="Illustration" transform="translate(804.000000, 178.000000)">
                    <g id="Group-2" transform="translate(16.000000, 0.000000)">
                        <g id="Dots" transform="translate(19.000000, 0.000000)" fill="#1C89FF">
                            <circle id="Oval-13" cx="79.5" cy="21.5" r="2.5"></circle>
                            <circle id="Oval-13-Copy-10" cx="314.5" cy="115.5" r="2.5"></circle>
                            <circle id="Oval-13-Copy" cx="152.5" cy="18.5" r="2.5"></circle>
                            <circle id="Oval-13-Copy-3" cx="72.5" cy="78.5" r="1.5"></circle>
                            <circle id="Oval-13-Copy-9" cx="360.5" cy="108.5" r="1.5"></circle>
                            <circle id="Oval-13-Copy-11" cx="269.5" cy="43.5" r="1.5"></circle>
                            <circle id="Oval-13-Copy-4" cx="1.5" cy="71.5" r="1.5"></circle>
                            <circle id="Oval-13-Copy-5" cx="66.5" cy="148.5" r="2.5"></circle>
                            <circle id="Oval-13-Copy-6" cx="117.5" cy="119.5" r="1.5"></circle>
                            <circle id="Oval-13-Copy-2" cx="255.5" cy="1.5" r="1.5"></circle>
                            <circle id="Oval-13-Copy-8" cx="334.5" cy="28.5" r="2.5"></circle>
                            <circle id="Oval-13-Copy-7" cx="284.5" cy="89.5" r="2.5"></circle>
                            <circle id="Oval-13-Copy-12" cx="148.5" cy="69.5" r="2.5"></circle>
                            <circle id="Oval-13" transform="translate(316.500000, 449.500000) scale(-1, -1) translate(-316.500000, -449.500000) " cx="316.5" cy="449.5" r="2.5"></circle>
                            <circle id="Oval-13-Copy-10" transform="translate(81.500000, 345.500000) scale(-1, -1) translate(-81.500000, -345.500000) " cx="81.5" cy="345.5" r="2.5"></circle>
                            <circle id="Oval-13-Copy" transform="translate(243.500000, 452.500000) scale(-1, -1) translate(-243.500000, -452.500000) " cx="243.5" cy="452.5" r="2.5"></circle>
                            <circle id="Oval-13-Copy-3" transform="translate(323.500000, 392.500000) scale(-1, -1) translate(-323.500000, -392.500000) " cx="323.5" cy="392.5" r="1.5"></circle>
                            <circle id="Oval-13-Copy-9" transform="translate(35.500000, 362.500000) scale(-1, -1) translate(-35.500000, -362.500000) " cx="35.5" cy="362.5" r="1.5"></circle>
                            <circle id="Oval-13-Copy-11" transform="translate(126.500000, 427.500000) scale(-1, -1) translate(-126.500000, -427.500000) " cx="126.5" cy="427.5" r="1.5"></circle>
                            <circle id="Oval-13-Copy-4" transform="translate(394.500000, 399.500000) scale(-1, -1) translate(-394.500000, -399.500000) " cx="394.5" cy="399.5" r="1.5"></circle>
                            <circle id="Oval-13-Copy-5" transform="translate(329.500000, 322.500000) scale(-1, -1) translate(-329.500000, -322.500000) " cx="329.5" cy="322.5" r="2.5"></circle>
                            <circle id="Oval-13-Copy-6" transform="translate(278.500000, 351.500000) scale(-1, -1) translate(-278.500000, -351.500000) " cx="278.5" cy="351.5" r="1.5"></circle>
                            <circle id="Oval-13-Copy-2" transform="translate(140.500000, 469.500000) scale(-1, -1) translate(-140.500000, -469.500000) " cx="140.5" cy="469.5" r="1.5"></circle>
                            <circle id="Oval-13-Copy-8" transform="translate(61.500000, 442.500000) scale(-1, -1) translate(-61.500000, -442.500000) " cx="61.5" cy="442.5" r="2.5"></circle>
                            <circle id="Oval-13-Copy-7" transform="translate(111.500000, 381.500000) scale(-1, -1) translate(-111.500000, -381.500000) " cx="111.5" cy="381.5" r="2.5"></circle>
                            <circle id="Oval-13-Copy-12" transform="translate(247.500000, 401.500000) scale(-1, -1) translate(-247.500000, -401.500000) " cx="247.5" cy="401.5" r="2.5"></circle>
                        </g>
                        <g id="Circles" transform="translate(0.000000, 90.000000)" fill-opacity="0.1" fill="#A4CFFF">
                            <circle id="4" cx="214.5" cy="139.5" r="139.5"></circle>
                            <circle id="3" cx="19.5" cy="224.5" r="19.5"></circle>
                            <circle id="2" cx="419.5" cy="312.5" r="34.5"></circle>
                            <circle id="1" cx="401.5" cy="56.5" r="16.5"></circle>
                        </g>
                    </g>
                </g>
            </g>
        </g>
    </g>
</svg>