<?xml version="1.0" encoding="UTF-8"?>
<svg width="172px" height="49px" viewBox="0 0 172 49" version="1.1" xmlns="http://www.w3.org/2000/svg" xmlns:xlink="http://www.w3.org/1999/xlink">
    <!-- Generator: Sketch 41.2 (35397) - http://www.bohemiancoding.com/sketch -->
    <title>Logo</title>
    <desc>Created with Sketch.</desc>
    <defs></defs>
    <g id="Page-1" stroke="none" stroke-width="1" fill="none" fill-rule="evenodd">
        <g id="EcmaStack" transform="translate(-74.000000, -56.000000)">
            <g id="Hero-section">
                <g id="Logo" transform="translate(66.000000, 55.000000)">
                    <g id="Logomark">
                        <path d="M54.352447,25.07085 C54.352447,36.9970012 44.6657907,46.6648849 32.7167965,46.6648849 C20.7674878,46.6648849 11.0808315,36.9970012 11.0808315,25.07085 C11.0808315,13.1446988 20.7674878,3.47712907 32.7167965,3.47712907 C44.6657907,3.47712907 54.352447,13.1446988 54.352447,25.07085" id="Fill-1" fill="#1C89FF"></path>
                        <path d="M32.2705258,15.2254884 C34.8826579,15.2254884 37.4947899,15.4675465 40.0889918,15.9526047 C42.1726579,16.3588605 43.6879083,18.3286047 43.4928792,20.1799884 C43.0833181,24.3718953 42.6737569,28.6573605 42.2626229,33.021 C42.0672792,34.965 40.5234035,36.6543837 38.801485,36.7212558 C36.6322579,36.7881279 34.4510773,36.8217209 32.2705258,36.8217209 C30.0893452,36.8217209 27.9091083,36.7881279 25.7395666,36.7212558 C24.0176482,36.6543837 22.4731433,34.965 22.2777996,33.021 C21.8676093,28.6573605 21.457419,24.3718953 21.0481724,20.1799884 C20.8531433,18.3286047 22.3687083,16.3585465 24.4523744,15.9526047 C27.0462617,15.4681744 29.6580792,15.2254884 32.2705258,15.2254884 Z M28.3543095,27.4393151 C28.4751017,29.4602337 27.7667056,31.139257 26.7720571,31.1894895 C25.7767794,31.2394081 24.8720959,29.6423267 24.7509891,27.6214081 C24.6301969,25.6004895 25.338593,23.9214663 26.3335561,23.8712337 C27.3288338,23.8210012 28.2335173,25.4183965 28.3543095,27.4393151 Z M36.1867421,27.4393151 C36.0656353,29.4602337 36.7740315,31.139257 37.7689946,31.1894895 C38.7642722,31.2394081 39.6689557,29.6423267 39.789748,27.6214081 C39.9108548,25.6004895 39.2024586,23.9214663 38.2074955,23.8712337 C37.2122179,23.8210012 36.3075344,25.4183965 36.1867421,27.4393151 Z M35.8789421,32.6987895 C35.7977849,32.5976965 35.6493111,32.5757198 35.5388994,32.6479291 C34.6486858,33.2419291 33.4876334,33.5687547 32.2702742,33.5687547 C31.052915,33.5687547 29.8921771,33.2419291 29.0013344,32.6479291 C28.8931247,32.5757198 28.7430781,32.5976965 28.6619208,32.6987895 C28.5870548,32.7926616 28.5964917,32.9213826 28.6851984,33.0042663 C29.5791868,33.8513128 30.8861965,34.3373128 32.2702742,34.3373128 C33.6546664,34.3373128 34.9616761,33.8513128 35.8562936,33.0045802 C35.9443713,32.9213826 35.9538082,32.7926616 35.8789421,32.6987895 Z M48.4694249,18.8033023 C48.4898715,18.6893372 48.3992773,18.6149302 48.3086831,18.6149302 C48.25332,18.6149302 48.1976423,18.643186 48.1674443,18.7072326 L45.6103608,24.5847558 C45.2454676,24.4130233 44.8472307,24.2987442 44.4285472,24.2485116 C44.1523608,27.1108256 43.8686249,30.0893023 43.580485,33.1534884 C43.5716773,33.243593 43.5550054,33.331814 43.5417938,33.4212907 L43.6739103,33.4281977 C43.7456307,33.432593 43.8173511,33.4341628 43.8884423,33.4341628 C45.915487,33.4341628 47.6112967,31.8518372 47.7239103,29.807686 L47.8091569,28.2649186 C47.8620035,27.3048488 47.5540462,26.4094535 47.0057627,25.7049419 L48.4694249,18.8033023 Z M20.9588365,33.1446035 C20.6713258,30.0917198 20.388219,27.1148128 20.1117181,24.2487314 C19.69272,24.2992779 19.2951122,24.4129291 18.9308482,24.5849756 L16.3734501,18.7071384 C16.3435666,18.6427779 16.2875744,18.614836 16.2318967,18.614836 C16.1413025,18.614836 16.0507083,18.689557 16.0717841,18.8035221 L17.5351317,25.7048477 C16.9871627,26.4090453 16.6788909,27.3044407 16.732052,28.2648244 L16.8169841,29.8075919 C16.9295977,31.852057 18.6257219,33.4343826 20.6521375,33.4343826 C20.7235433,33.4343826 20.7949491,33.4321849 20.8669841,33.4287314 L20.9984715,33.4208826 C20.9846307,33.3292081 20.9682734,33.2381616 20.9588365,33.1446035 Z" id="Combined-Shape" fill="#FFFFFF"></path>
                        <path d="M32.2706831,5.86022442 C21.6573239,5.86022442 13.0228812,14.4782477 13.0228812,25.0707244 C13.0228812,35.6635151 21.6573239,44.2812244 32.2706831,44.2812244 C42.8834132,44.2812244 51.5181705,35.6635151 51.5181705,25.0707244 C51.5181705,14.4782477 42.8834132,5.86022442 32.2706831,5.86022442 M32.2706831,49.0479802 C19.0238016,49.0479802 8.24686951,38.2919337 8.24686951,25.0707244 C8.24686951,11.8495151 19.0238016,1.0934686 32.2706831,1.0934686 C45.5175647,1.0934686 56.2944967,11.8495151 56.2944967,25.0707244 C56.2944967,38.2919337 45.5175647,49.0479802 32.2706831,49.0479802" id="Fill-16" fill="#FFFFFF"></path>
                    </g>
                    <g id="Logotype" transform="translate(66.600000, 21.150000)">
                        <path d="M9.118305,5.19057 C8.949555,3.87162 8.108055,3.08637 6.621255,3.08637 C5.134005,3.08637 4.124205,3.75957 3.815505,5.19057 L9.118305,5.19057 Z M6.957855,9.31482 C8.332605,9.31482 9.371205,8.78157 9.959805,8.36127 L12.120255,10.69002 C10.970055,11.69982 9.511155,12.45717 7.014105,12.45717 C2.749455,12.45717 -4.50000002e-05,9.87597 -4.50000002e-05,6.20037 C-4.50000002e-05,2.58102 2.889855,0.00027 6.593355,0.00027 C10.885905,0.00027 13.214655,3.19842 12.933855,7.37892 L3.871755,7.37892 C4.236255,8.61327 5.246505,9.31482 6.957855,9.31482 L6.957855,9.31482 Z" id="Fill-1" fill="#FFFFFF"></path>
                        <path d="M14.059305,6.20046 C14.059305,2.58111 16.864605,0.00036 20.596455,0.00036 C22.981455,0.00036 24.412005,0.86976 25.618455,2.38491 L22.925205,4.57371 C22.476105,3.84381 21.550005,3.31056 20.596455,3.31056 C18.885105,3.31056 17.931105,4.51746 17.931105,6.20046 C17.931105,7.94016 18.885105,9.17451 20.596455,9.17451 C21.802905,9.17451 22.448205,8.61336 23.009355,8.05221 L25.562655,10.29726 C24.384105,11.61576 22.981455,12.45726 20.596455,12.45726 C16.864605,12.45726 14.059305,9.87606 14.059305,6.20046" id="Fill-4" fill="#FFFFFF"></path>
                        <path d="M26.89749,0.25245 L30.68514,0.25245 L30.60099,2.1042 C31.44294,0.64575 32.56524,0 33.99579,0 C35.53929,0 36.63324,0.64575 37.36269,2.0484 C38.34459,0.8136 39.66309,0 41.43069,0 C44.43309,0 46.17234,1.99215 46.17234,5.2749 L46.17234,12.2049 L42.41304,12.2049 L42.41304,5.6115 C42.41304,4.20885 41.96394,3.45105 40.53339,3.45105 C39.07449,3.45105 38.42874,4.1805 38.42874,5.8077 L38.42874,12.2049 L34.66944,12.2049 L34.66944,5.6115 C34.66944,4.20885 34.24824,3.45105 32.81724,3.45105 C31.35879,3.45105 30.68514,4.1805 30.68514,5.8077 L30.68514,12.2049 L26.89749,12.2049 L26.89749,0.25245 Z" id="Fill-6" fill="#FFFFFF"></path>
                        <path d="M63.36657,9.8901 L64.89657,9.0459 C65.45907,9.97785 66.17997,10.7163 67.63932,10.7163 C68.85252,10.7163 69.71382,10.06605 69.71382,9.081 C69.71382,8.0433 69.01092,7.58655 67.70952,7.0065 L66.91842,6.65505 C65.17737,5.88105 64.12302,5.00175 64.12302,3.1554 C64.12302,1.3797 65.49462,0.1134 67.48137,0.1134 C69.06357,0.1134 70.13637,0.7119 70.85727,1.9953 L69.39747,2.8917 C68.94072,2.1006 68.41287,1.73115 67.48137,1.73115 C66.53142,1.73115 65.93382,2.31165 65.93382,3.1203 C65.93382,4.0167 66.44367,4.4217 67.65687,4.9491 L68.43042,5.301 C70.47027,6.1974 71.56062,7.1469 71.56062,9.06345 C71.56062,11.15595 69.92487,12.36915 67.67442,12.36915 C65.40642,12.36915 64.03482,11.2437 63.36657,9.8901" id="Fill-8" fill="#49A0FF"></path>
                        <polygon id="Fill-10" fill="#49A0FF" points="75.6225 1.889415 72.07065 1.889415 72.07065 0.254115 81.0207 0.254115 81.0207 1.889415 77.4693 1.889415 77.4693 12.211065 75.6225 12.211065"></polygon>
                        <path d="M87.447735,8.958015 L85.953285,5.230665 C85.654485,4.526865 85.355685,3.454515 85.355685,3.454515 C85.355685,3.454515 85.073985,4.526865 84.775185,5.230665 L83.280285,8.958015 L87.447735,8.958015 Z M85.285035,0.131265 L85.496085,0.131265 L90.735885,12.211065 L88.801785,12.211065 L88.115985,10.523115 L82.647585,10.523115 L81.962235,12.211065 L80.168085,12.211065 L85.285035,0.131265 Z" id="Fill-12" fill="#49A0FF"></path>
                        <path d="M91.03014,6.232545 C91.03014,2.663145 93.77334,0.113445 97.16679,0.113445 C99.31194,0.113445 100.89459,0.904995 101.94939,2.487645 L100.52514,3.506895 C99.85689,2.470095 98.73144,1.783845 97.16679,1.783845 C94.68774,1.783845 92.92914,3.683295 92.92914,6.232545 C92.92914,8.782245 94.68774,10.698795 97.16679,10.698795 C98.81964,10.698795 99.92709,9.960345 100.70109,8.817345 L102.12489,9.819945 C101.08809,11.402145 99.40014,12.369195 97.16679,12.369195 C93.77334,12.369195 91.03014,9.801945 91.03014,6.232545" id="Fill-14" fill="#49A0FF"></path>
                        <path d="M106.509465,5.31846 L110.377665,0.25416 L112.487715,0.25416 L108.250065,5.84586 L112.962465,12.21066 L110.712015,12.21066 L107.019315,7.21746 L105.735465,8.78211 L105.735465,12.21066 L103.872015,12.21066 L103.872015,0.25416 L105.735465,0.25416 L105.735465,5.17806 C105.735465,5.72256 105.665715,6.44346 105.595515,6.93621 C105.859215,6.39081 106.210665,5.72256 106.509465,5.31846" id="Fill-16" fill="#49A0FF"></path>
                        <path d="M54.393165,9.146565 C52.793865,9.146565 51.784065,8.080515 51.784065,6.200415 C51.784065,4.432815 52.793865,3.338865 54.393165,3.338865 C56.020365,3.338865 57.086865,4.432815 57.086865,6.200415 C57.086865,8.080515 56.020365,9.146565 54.393165,9.146565 L54.393165,9.146565 Z M56.974365,0.251865 L56.974365,1.936215 C56.217015,0.757215 55.150965,0.000315 53.242965,0.000315 C50.353065,0.000315 47.883915,2.525265 47.883915,6.200415 C47.883915,9.876015 50.380965,12.457215 53.298765,12.457215 C55.122615,12.457215 56.385315,11.727765 57.058515,10.465515 L56.974365,12.204765 L60.762015,12.204765 L60.762015,0.251865 L56.974365,0.251865 Z" id="Fill-18" fill="#FFFFFF"></path>
                    </g>
                </g>
            </g>
        </g>
    </g>
</svg>